<?xml version="1.0" encoding="UTF-8" standalone="no"?>
<!-- Created with Inkscape (http://www.inkscape.org/) -->

<svg
   xmlns:dc="http://purl.org/dc/elements/1.1/"
   xmlns:cc="http://creativecommons.org/ns#"
   xmlns:rdf="http://www.w3.org/1999/02/22-rdf-syntax-ns#"
   xmlns:svg="http://www.w3.org/2000/svg"
   xmlns="http://www.w3.org/2000/svg"
   xmlns:xlink="http://www.w3.org/1999/xlink"
   xmlns:sodipodi="http://sodipodi.sourceforge.net/DTD/sodipodi-0.dtd"
   xmlns:inkscape="http://www.inkscape.org/namespaces/inkscape"
   width="230mm"
   height="100mm"
   viewBox="0 0 230 100"
   version="1.1"
   id="svg5546"
   inkscape:version="0.92.3 (2405546, 2018-03-11)"
   sodipodi:docname="drawing.svg">
  <defs
     id="defs5540" />
  <sodipodi:namedview
     id="base"
     pagecolor="#ffffff"
     bordercolor="#666666"
     borderopacity="1.0"
     inkscape:pageopacity="0.0"
     inkscape:pageshadow="2"
     inkscape:zoom="0.98994949"
     inkscape:cx="320.55868"
     inkscape:cy="136.6657"
     inkscape:document-units="mm"
     inkscape:current-layer="layer1"
     showgrid="false"
     fit-margin-top="0"
     fit-margin-left="0"
     fit-margin-right="0"
     fit-margin-bottom="0"
     inkscape:pagecheckerboard="true"
     inkscape:window-width="1582"
     inkscape:window-height="849"
     inkscape:window-x="153"
     inkscape:window-y="98"
     inkscape:window-maximized="0" />
  <metadata
     id="metadata5543">
    <rdf:RDF>
      <cc:Work
         rdf:about="">
        <dc:format>image/svg+xml</dc:format>
        <dc:type
           rdf:resource="http://purl.org/dc/dcmitype/StillImage" />
        <dc:title></dc:title>
      </cc:Work>
    </rdf:RDF>
  </metadata>
  <g
     inkscape:label="Layer 1"
     inkscape:groupmode="layer"
     id="layer1"
     transform="translate(-5.7243446,-2.0875563)">
    <path
       style="opacity:1;vector-effect:none;fill:#f0ab00;fill-opacity:1;stroke:none;stroke-width:4.12280607;stroke-linecap:butt;stroke-linejoin:miter;stroke-miterlimit:4;stroke-dasharray:none;stroke-dashoffset:0;stroke-opacity:1"
       id="path4655"
       d="m 99.046091,38.868141 c -1.50929,0.294444 -0.31534,0.0913 2.992589,-1.740975 0.0326,-0.0181 11.22091,4.015415 11.22091,4.015415 0.96652,9.587693 -7.27006,6.459971 -10.06123,11.185073 l -4.097199,-0.602925 v 0 c 0.21902,-0.16293 -0.19322,0.208822 0,0 0.41677,-0.284927 1.175019,-0.928643 1.626279,-1.165109 0.46155,-0.279032 0.76089,-0.64766 1.24655,-0.888449 1.59825,-1.137624 3.25141,-2.074193 4.9997,-2.961833 0.48719,-0.299768 0.83799,-0.465164 1.22082,-0.685523 0.12175,-0.07281 0.22941,-0.16765 0.35124,-0.240339 0.11996,-0.07157 0.34955,0.01355 0.0805,-0.122598 -0.42907,-0.162499 -0.86465,-0.308168 -1.28901,-0.483179 -0.47665,-0.169765 -0.93445,-0.373203 -1.39037,-0.593156 -0.63537,-0.329216 -1.26143,-0.679543 -1.84746,-1.091639 -0.85546,-0.601395 -1.70787,-1.206016 -2.5784,-1.786596 -0.85089,-0.624452 -1.701199,-1.254459 -2.501309,-1.943233 -0.24384,-0.257754 -0.58424,-0.542173 -0.68644,-0.899382 -0.0267,-0.09332 -0.0809,-0.238948 7.9e-4,-0.291182 3.203849,-2.045719 2.266089,-1.971704 3.901999,-2.021959 1.20884,0.01053 2.41758,0.02885 3.62634,0.04554 1.76536,0.02864 3.53075,0.07091 5.29336,0.178649 1.3904,0.06372 2.78042,0.0684 4.17207,0.04169 1.58461,-0.02516 3.16895,-0.07089 4.75054,-0.176453 1.72098,-0.09613 3.44406,-0.09369 5.16532,-0.184473 1.21891,-0.08718 2.425,-0.278543 3.64319,-0.346184 0.60723,0.04347 1.15098,0.164568 1.63366,0.555538 0.56823,0.324358 1.136,0.646705 1.67689,1.016336 0.82724,0.593984 1.68812,1.136489 2.54243,1.689873 0.99903,0.61224 1.98707,1.241467 3.00065,1.829665 0.73392,0.442738 1.4634,0.900324 2.1226,1.450813 0.5067,0.407316 0.99376,0.831371 1.11715,1.505768 -7.9e-4,0.103478 0.0201,0.209473 -0.003,0.310433 -0.10394,0.46224 -1.17041,0.95545 -1.51551,1.219507 -2.79811,1.819076 -5.69559,3.489663 -8.65677,5.029065 -2.12931,1.039889 -4.2556,2.094018 -6.44157,3.010421 -0.79153,0.338497 -1.54714,0.733967 -2.43266,0.644216 -1.65762,-0.0177 -3.31515,-0.0425 -4.97283,-0.054 -3.91167,-0.0308 -7.82348,-0.0428 -11.7351,-0.0822 -2.73094,-0.0386 -5.472659,-0.0514 -8.189419,-0.360421 l 2.06776,-2.149594 c 15.830119,-3.35449 20.584189,-11.355284 -0.0551,-12.85663 z"
       inkscape:connector-curvature="0"
       sodipodi:nodetypes="ccccccccccccccccccccccccccccccccccccccccccc"
       inkscape:export-xdpi="96"
       inkscape:export-ydpi="96"
       inkscape:export-filename="C:\Users\larsh\git\Presentations\ukisug2019\img\foo1.png" />
    <g
       style="fill:#cccccc;stroke-width:3;stroke-miterlimit:4;stroke-dasharray:none"
       id="g4689"
       clip-path="none"
       transform="matrix(1.0485523,0,0,0.99827524,-8.3296786,-48.648353)">
      <g
         style="fill:#cccccc;stroke-width:3;stroke-miterlimit:4;stroke-dasharray:none"
         inkscape:label="Clip"
         id="g4687">
        <path
           inkscape:connector-curvature="0"
           id="path4669"
           d="m 59.988234,56.783663 0.211871,76.621417 h 32.415991 l 0.06885,-76.702085 z"
           style="fill:#cccccc;stroke:#000000;stroke-width:3;stroke-linecap:round;stroke-linejoin:round;stroke-miterlimit:4;stroke-dasharray:none;stroke-opacity:1" />
        <path
           inkscape:connector-curvature="0"
           id="path4683"
           d="m 67.468749,73.691665 h 17.4625"
           style="fill:#cccccc;stroke:#000000;stroke-width:3;stroke-linecap:round;stroke-linejoin:round;stroke-miterlimit:4;stroke-dasharray:none;stroke-opacity:1" />
      </g>
    </g>
    <use
       height="100%"
       width="100%"
       id="use4693"
       xlink:href="#g4687"
       y="0"
       x="0"
       transform="matrix(1.0485523,0,0,0.99827524,-8.3296786,-48.648353)" />
    <path
       inkscape:connector-curvature="0"
       id="path4683-5"
       d="M 62.414834,35.34923 H 80.725181"
       style="fill:#cccccc;stroke:#000000;stroke-width:3.06931496;stroke-linecap:round;stroke-linejoin:round;stroke-miterlimit:4;stroke-dasharray:none;stroke-opacity:1" />
    <path
       sodipodi:nodetypes="cc"
       style="fill:#cccccc;stroke:#000000;stroke-width:3.06931496;stroke-linecap:round;stroke-linejoin:round;stroke-miterlimit:4;stroke-dasharray:none;stroke-opacity:1"
       d="M 71.571431,53.650726 V 65.29434"
       id="path4723"
       inkscape:connector-curvature="0" />
    <path
       style="opacity:1;vector-effect:none;fill:#0faaff;fill-opacity:1;stroke:none;stroke-width:4.12280607;stroke-linecap:butt;stroke-linejoin:miter;stroke-miterlimit:4;stroke-dasharray:none;stroke-dashoffset:0;stroke-opacity:1"
       id="path4655-4"
       d="m 144.87758,37.749347 c -1.50929,0.294445 -0.31534,0.0913 2.99258,-1.740974 0.0326,-0.0181 11.22091,4.015415 11.22091,4.015415 0.96652,9.587693 -7.27006,6.459971 -10.06123,11.185072 l -4.0972,-0.602924 v 0 c 0.21902,-0.162931 -0.19322,0.208822 0,0 0.41677,-0.284927 1.17502,-0.928643 1.62628,-1.165109 0.46155,-0.279029 0.76089,-0.64766 1.24655,-0.88845 1.59825,-1.137623 3.25142,-2.074193 4.9997,-2.961833 0.48719,-0.299767 0.83799,-0.465164 1.22082,-0.685522 0.12175,-0.07281 0.22941,-0.16765 0.35124,-0.240339 0.11996,-0.07157 0.34955,0.01355 0.0805,-0.122598 -0.42907,-0.162499 -0.86465,-0.308168 -1.28901,-0.483179 -0.47665,-0.169765 -0.93445,-0.373203 -1.39037,-0.593156 -0.63536,-0.329213 -1.26143,-0.679543 -1.84746,-1.091639 -0.85545,-0.601396 -1.70787,-1.206016 -2.5784,-1.786597 -0.85089,-0.624451 -1.7012,-1.254458 -2.5013,-1.943232 -0.24384,-0.257754 -0.58424,-0.542174 -0.68645,-0.899382 -0.0267,-0.09332 -0.0809,-0.238948 7.9e-4,-0.291182 3.20385,-2.045719 2.26609,-1.971704 3.902,-2.021959 1.20884,0.01053 2.41758,0.02885 3.62634,0.04554 1.76536,0.02864 3.53075,0.07091 5.29336,0.178649 1.3904,0.06372 2.78042,0.0684 4.17207,0.04169 1.58461,-0.02516 3.16895,-0.07089 4.75054,-0.176454 1.72098,-0.09613 3.44406,-0.09369 5.16532,-0.184473 1.21891,-0.08718 2.425,-0.27854 3.64319,-0.346183 0.60723,0.04347 1.15098,0.164568 1.63366,0.55554 0.56823,0.324358 1.136,0.646703 1.67689,1.016334 0.82724,0.593984 1.68812,1.136488 2.54243,1.689872 0.99903,0.612241 1.98707,1.241468 3.00065,1.829665 0.73392,0.442738 1.4634,0.900325 2.1226,1.450814 0.5067,0.407316 0.99376,0.831371 1.11715,1.505768 -7.9e-4,0.103478 0.0201,0.209473 -0.003,0.310433 -0.10394,0.46224 -1.17041,0.95545 -1.51551,1.219507 -2.79811,1.819076 -5.69559,3.489663 -8.65677,5.029065 -2.12931,1.039891 -4.2556,2.094018 -6.44157,3.010421 -0.79153,0.338495 -1.54714,0.733965 -2.43266,0.644215 -1.65762,-0.0177 -3.31515,-0.0425 -4.97283,-0.054 -3.91167,-0.03077 -7.82348,-0.04283 -11.73509,-0.08224 -2.73095,-0.03857 -5.47267,-0.05141 -8.18943,-0.360418 l 2.06776,-2.149594 c 15.83012,-3.354451 20.58419,-11.355244 -0.0551,-12.856591 z"
       inkscape:connector-curvature="0"
       sodipodi:nodetypes="ccccccccccccccccccccccccccccccccccccccccccc"
       inkscape:export-xdpi="96"
       inkscape:export-ydpi="96"
       inkscape:export-filename="C:\Users\larsh\git\Presentations\ukisug2019\img\foo1.png" />
    <path
       style="opacity:1;vector-effect:none;fill:#760a85;fill-opacity:1;stroke:none;stroke-width:4.12280607;stroke-linecap:butt;stroke-linejoin:miter;stroke-miterlimit:4;stroke-dasharray:none;stroke-dashoffset:0;stroke-opacity:1"
       id="path4655-4-5"
       d="m 191.17967,38.013931 c -1.50929,0.294444 -0.31534,0.0913 2.99258,-1.740975 0.0326,-0.0181 11.22091,4.015415 11.22091,4.015415 0.96652,9.587693 -7.27006,6.459971 -10.06123,11.185073 l -4.0972,-0.602922 v 0 c 0.21902,-0.162933 -0.19322,0.208819 0,0 0.41677,-0.284927 1.17502,-0.928645 1.62628,-1.165109 0.46155,-0.279032 0.76089,-0.647663 1.24655,-0.88845 1.59825,-1.137626 3.25142,-2.074195 4.9997,-2.961835 0.48719,-0.299765 0.83799,-0.465162 1.22082,-0.68552 0.12175,-0.07281 0.22941,-0.16765 0.35124,-0.240339 0.11996,-0.07157 0.34955,0.01355 0.0805,-0.122598 -0.42907,-0.162502 -0.86465,-0.308171 -1.28901,-0.483182 -0.47665,-0.169764 -0.93445,-0.373203 -1.39037,-0.593153 -0.63536,-0.329216 -1.26143,-0.679546 -1.84746,-1.091639 -0.85545,-0.601396 -1.70787,-1.206019 -2.5784,-1.786597 -0.85089,-0.624451 -1.7012,-1.254461 -2.5013,-1.943235 -0.24384,-0.257752 -0.58424,-0.542171 -0.68645,-0.899382 -0.0267,-0.09332 -0.0809,-0.238948 7.9e-4,-0.291182 3.20385,-2.045716 2.26609,-1.971704 3.902,-2.021959 1.20884,0.01053 2.41758,0.02885 3.62634,0.04554 1.76536,0.02864 3.53075,0.07091 5.29336,0.178649 1.3904,0.06372 2.78042,0.0684 4.17207,0.04169 1.58461,-0.02516 3.16895,-0.07089 4.75054,-0.176453 1.72098,-0.09613 3.44406,-0.09369 5.16532,-0.184473 1.21891,-0.08718 2.425,-0.27854 3.64319,-0.346184 0.60723,0.04347 1.15098,0.164569 1.63366,0.555541 0.56823,0.324358 1.136,0.646702 1.67689,1.016333 0.82724,0.593984 1.68812,1.136489 2.54243,1.689873 0.99903,0.61224 1.98707,1.24147 3.00065,1.829665 0.73392,0.442738 1.4634,0.900324 2.1226,1.450813 0.5067,0.407316 0.99376,0.831372 1.11715,1.505771 -7.9e-4,0.103476 0.0201,0.20947 -0.003,0.310433 -0.10394,0.462237 -1.1704,0.955447 -1.51551,1.219504 -2.79811,1.819076 -5.69559,3.489664 -8.65677,5.029065 -2.1293,1.039892 -4.2556,2.094018 -6.44157,3.010421 -0.79153,0.338495 -1.54714,0.733965 -2.43266,0.644216 -1.65762,-0.0177 -3.31515,-0.0425 -4.97282,-0.054 -3.91168,-0.03077 -7.82349,-0.04283 -11.7351,-0.08224 -2.73095,-0.03857 -5.47267,-0.05141 -8.18943,-0.360418 l 2.06776,-2.149596 c 15.83012,-3.354451 20.58419,-11.355242 -0.0551,-12.856589 z"
       inkscape:connector-curvature="0"
       sodipodi:nodetypes="ccccccccccccccccccccccccccccccccccccccccccc"
       inkscape:export-xdpi="96"
       inkscape:export-ydpi="96"
       inkscape:export-filename="C:\Users\larsh\git\Presentations\ukisug2019\img\foo1.png" />
    <text
       xml:space="preserve"
       style="font-style:normal;font-weight:normal;font-size:7.00392962px;line-height:1.25;font-family:sans-serif;letter-spacing:0px;word-spacing:0px;fill:#ffffff;fill-opacity:1;stroke:none;stroke-width:0.17509823"
       x="8.0293102"
       y="78.449959"
       id="text4765"
       inkscape:export-xdpi="96"
       inkscape:export-ydpi="96"
       inkscape:export-filename="C:\Users\larsh\git\Presentations\ukisug2019\img\foo1.png"><tspan
         sodipodi:role="line"
         id="tspan4763"
         x="8.0293102"
         y="78.449959"
         style="fill:#ffffff;stroke-width:0.17509823">Developers</tspan></text>
    <text
       xml:space="preserve"
       style="font-style:normal;font-weight:normal;font-size:7.00393009px;line-height:1.25;font-family:sans-serif;letter-spacing:0px;word-spacing:0px;fill:#ffffff;fill-opacity:1;stroke:none;stroke-width:0.17509823"
       x="56.936573"
       y="100.32356"
       id="text4765-8"
       inkscape:export-xdpi="96"
       inkscape:export-ydpi="96"
       inkscape:export-filename="C:\Users\larsh\git\Presentations\ukisug2019\img\foo1.png"><tspan
         sodipodi:role="line"
         id="tspan4763-5"
         x="56.936573"
         y="100.32356"
         style="fill:#ffffff;stroke-width:0.17509823">Monolith</tspan></text>
    <text
       xml:space="preserve"
       style="font-style:normal;font-weight:normal;font-size:7.00393009px;line-height:1.25;font-family:sans-serif;letter-spacing:0px;word-spacing:0px;fill:#ffffff;fill-opacity:1;stroke:none;stroke-width:0.17509823"
       x="130.00745"
       y="79.279228"
       id="text4765-8-7"
       inkscape:export-xdpi="96"
       inkscape:export-ydpi="96"
       inkscape:export-filename="C:\Users\larsh\git\Presentations\ukisug2019\img\foo1.png"><tspan
         sodipodi:role="line"
         id="tspan4763-5-6"
         x="130.00745"
         y="79.279228"
         style="fill:#ffffff;stroke-width:0.17509823">Delivery Process</tspan></text>
    <text
       xml:space="preserve"
       style="font-style:normal;font-weight:normal;font-size:7.00393009px;line-height:1.25;font-family:sans-serif;letter-spacing:0px;word-spacing:0px;fill:#ffffff;fill-opacity:1;stroke:none;stroke-width:0.17509823"
       x="108.84077"
       y="43.825047"
       id="text4765-8-0"
       inkscape:export-xdpi="96"
       inkscape:export-ydpi="96"
       inkscape:export-filename="C:\Users\larsh\git\Presentations\ukisug2019\img\foo1.png"><tspan
         sodipodi:role="line"
         id="tspan4763-5-5"
         x="108.84077"
         y="43.825047"
         style="fill:#ffffff;stroke-width:0.17509823">Build</tspan></text>
    <text
       xml:space="preserve"
       style="font-style:normal;font-weight:normal;font-size:7.00393009px;line-height:1.25;font-family:sans-serif;letter-spacing:0px;word-spacing:0px;fill:#ffffff;fill-opacity:1;stroke:none;stroke-width:0.17509823"
       x="200.91576"
       y="43.295887"
       id="text4765-8-2"
       inkscape:export-xdpi="96"
       inkscape:export-ydpi="96"
       inkscape:export-filename="C:\Users\larsh\git\Presentations\ukisug2019\img\foo1.png"><tspan
         sodipodi:role="line"
         id="tspan4763-5-1"
         x="200.91576"
         y="43.295887"
         style="fill:#ffffff;stroke-width:0.17509823">Release</tspan></text>
    <text
       xml:space="preserve"
       style="font-style:normal;font-weight:normal;font-size:7.00393009px;line-height:1.25;font-family:sans-serif;letter-spacing:0px;word-spacing:0px;fill:#ffffff;fill-opacity:1;stroke:none;stroke-width:0.17509823"
       x="154.61366"
       y="43.560459"
       id="text4765-8-3"
       inkscape:export-xdpi="96"
       inkscape:export-ydpi="96"
       inkscape:export-filename="C:\Users\larsh\git\Presentations\ukisug2019\img\foo1.png"><tspan
         sodipodi:role="line"
         id="tspan4763-5-4"
         x="154.61366"
         y="43.560459"
         style="fill:#ffffff;stroke-width:0.17509823">Test</tspan></text>
    <path
       style="opacity:1;vector-effect:none;fill:#93c939;fill-opacity:1;stroke:none;stroke-width:4.58837414;stroke-linecap:butt;stroke-linejoin:miter;stroke-miterlimit:4;stroke-dasharray:none;stroke-dashoffset:0;stroke-opacity:1"
       id="path4558-4-7-4-0"
       d="m 29.776214,20.476178 c -0.997851,-0.03415 -2.455145,0.405912 -3.437686,0.650221 -0.08453,0.02102 -1.7377,0.560994 -1.80233,0.582035 -0.991627,0.410127 -1.985816,0.809972 -2.924192,1.36828 -0.325785,0.193821 -1.277095,0.830751 -0.957554,0.623591 4.303994,-2.79038 5.292344,-3.675834 3.266563,-1.970902 -1.26274,1.141513 -2.259917,2.531384 -2.905792,4.219824 -0.4145,1.380413 -0.532994,2.850517 -0.480489,4.302566 0.07644,1.697218 0.621314,2.578564 1.808014,3.533577 2.376865,1.388568 5.113535,1.494394 7.723591,1.672667 2.565683,0.135927 5.134715,0.128619 7.702245,0.09553 0.259588,-0.02627 0.5206,-0.03809 0.778756,-0.07893 0.376203,-0.05959 1.069554,-0.23177 1.425792,-0.391356 0.223547,-0.100187 0.85244,-0.506457 0.643583,-0.370649 -4.712716,3.064269 -5.550055,3.972864 -3.699494,2.148231 1.264171,-1.330698 1.853943,-3.051799 2.179717,-4.938993 0.337362,-1.874272 0.06503,-3.679763 -0.472803,-5.459495 -0.439951,-1.417276 -1.18147,-2.668268 -2.060601,-3.770482 -0.627391,-0.560803 -1.184614,-1.222321 -1.93579,-1.553479 -0.747701,-0.431383 -1.590931,-0.534736 -2.413199,-0.612534 -0.811709,-0.05792 0,0 -2.438331,-0.04968 -1.733551,-0.03762 -2.974851,-3.021594 4.70529,-3.934991 0.82342,0.0048 1.648642,0.0096 2.46839,0.1101 0.871652,0.127904 1.740231,0.31905 2.530605,0.783319 0.765167,0.461774 1.404789,1.140945 2.039699,1.807716 0.891379,1.200253 1.67694,2.515179 2.130367,4.018278 0.583838,1.861817 0.922351,3.784894 0.614249,5.762472 -0.282178,1.977363 -0.793557,3.847289 -2.032699,5.327461 -2.406986,2.815169 -5.649351,5.002019 -9.104067,5.085252 -2.541733,-0.02638 -5.084213,-0.06496 -7.623228,-0.211974 -2.722699,-0.201951 -5.573725,-0.342442 -8.015863,-1.893496 -1.270197,-1.103982 -1.974096,-2.141511 -2.090048,-4.022767 -0.09781,-1.535556 0.03132,-3.087065 0.384949,-4.574007 0.576339,-1.814279 1.541226,-3.311144 2.822222,-4.565193 2.454501,-2.247763 0.774544,-0.775808 6.487259,-4.58363 1.24716,-0.8313 2.614494,-1.387614 3.981207,-1.891557 5.849982,-1.480171 2.186086,0.917999 0.701668,2.783017 z"
       inkscape:connector-curvature="0"
       sodipodi:nodetypes="ccccccccccccccccccccccccccccccccccscc" />
    <path
       style="opacity:1;vector-effect:none;fill:#93c939;fill-opacity:1;stroke:none;stroke-width:3.33877516;stroke-linecap:round;stroke-linejoin:round;stroke-miterlimit:4;stroke-dasharray:none;stroke-dashoffset:0;stroke-opacity:1"
       id="path6211-8"
       d="m 30.884624,36.895193 c -0.321678,2.048976 -0.529042,4.11313 -0.670541,6.187863 -0.142236,2.510296 -0.164298,5.026713 -0.166082,7.541467 2.28e-4,0.793509 0.0052,1.586984 0.01131,2.380453 0,0 -3.578241,2.098826 -3.578241,2.098826 v 0 c 0.0073,-0.801656 0.01224,-1.603338 0.02282,-2.404949 0.03786,-2.533951 0.09646,-5.067659 0.212051,-7.598701 0.106535,-2.049841 0.272389,-4.09109 0.53094,-6.123371 0,0 3.637727,-2.081588 3.637727,-2.081588 z"
       inkscape:connector-curvature="0" />
    <path
       style="opacity:1;vector-effect:none;fill:#93c939;fill-opacity:1;stroke:none;stroke-width:3.33877516;stroke-linecap:round;stroke-linejoin:round;stroke-miterlimit:4;stroke-dasharray:none;stroke-dashoffset:0;stroke-opacity:1"
       id="path6213-7"
       d="m 26.698635,55.601422 c -0.138761,0.0785 -0.27886,0.153954 -0.416283,0.235527 -2.550861,1.514184 4.324293,-3.005971 1.613096,-1.067652 -0.218358,0.156112 -0.43429,0.316733 -0.649122,0.479203 -0.225111,0.170241 -0.447068,0.345911 -0.670603,0.518864 -1.276649,1.027118 -2.459044,2.207874 -3.580855,3.44977 -0.750056,0.856252 -1.526312,1.682265 -2.325044,2.477984 -0.417238,0.418179 -0.863239,0.790543 -1.245802,1.251979 0,0 -3.761956,1.797196 -3.761956,1.797196 v 0 c 0.405506,-0.457171 0.783848,-0.928415 1.257906,-1.300967 0.817558,-0.790975 1.611551,-1.612003 2.378306,-2.46819 1.108752,-1.276828 2.309548,-2.457595 3.568554,-3.53278 2.237823,-1.769028 4.584182,-3.358658 7.008728,-4.766593 0,0 -3.176925,2.925659 -3.176925,2.925659 z"
       inkscape:connector-curvature="0" />
    <path
       style="opacity:1;vector-effect:none;fill:#93c939;fill-opacity:1;stroke:none;stroke-width:3.33877516;stroke-linecap:round;stroke-linejoin:round;stroke-miterlimit:4;stroke-dasharray:none;stroke-dashoffset:0;stroke-opacity:1"
       id="path6215-1"
       d="m 29.87556,52.675763 c 0.552234,0.97925 1.094573,1.964399 1.598254,2.977793 0.406368,0.650327 0.744621,1.348602 1.019737,2.083086 0.231967,0.770869 0.391328,1.565502 0.627765,2.334964 0.143398,0.630962 0.491359,1.142502 0.756663,1.703657 0.185271,0.396909 0.439684,0.684884 0.760791,0.934543 0.05383,0.02711 0.107748,0.05419 0.161622,0.08128 0,0 -3.417263,2.573297 -3.417263,2.573297 v 0 c -0.06483,-0.04592 -0.129592,-0.09183 -0.194388,-0.137747 -0.34625,-0.315299 -0.644797,-0.65796 -0.849018,-1.116007 -0.269308,-0.585121 -0.620204,-1.124096 -0.766143,-1.777995 -0.237745,-0.757605 -0.406275,-1.539004 -0.629373,-2.302097 -0.263499,-0.721156 -0.579016,-1.412457 -0.965655,-2.057829 -0.496784,-1.01728 -1.026136,-2.016762 -1.631238,-2.954184 0,0 3.528246,-2.342769 3.528246,-2.342769 z"
       inkscape:connector-curvature="0" />
    <path
       style="opacity:1;vector-effect:none;fill:#93c939;fill-opacity:1;stroke:none;stroke-width:3.33877516;stroke-linecap:round;stroke-linejoin:round;stroke-miterlimit:4;stroke-dasharray:none;stroke-dashoffset:0;stroke-opacity:1"
       id="path6217-1"
       d="m 18.223174,43.246304 c 1.935967,0.491903 3.88351,0.914953 5.843977,1.258009 2.679892,0.380855 5.36802,0.660133 8.043245,1.084906 2.146308,0.356005 4.30694,0.569679 6.472562,0.679545 0.929651,0.04464 1.860177,0.04197 2.790368,0.03346 0.400695,-0.0039 0.202935,-0.0024 0.593288,-0.0055 0,0 -3.29098,2.755286 -3.29098,2.755286 v 0 c -0.387779,5.29e-4 -0.191431,5.29e-4 -0.589066,-2.65e-4 -0.916583,-0.0072 -1.833073,-0.03457 -2.747975,-0.101682 -2.142793,-0.173593 -4.280295,-0.42255 -6.406646,-0.777078 -2.682071,-0.413486 -5.376796,-0.688166 -8.061211,-1.079286 -1.996625,-0.352039 -3.980989,-0.77778 -5.971432,-1.170998 0,0 3.32387,-2.676438 3.32387,-2.676438 z"
       inkscape:connector-curvature="0" />
  </g>
</svg>
