<?xml version="1.0" encoding="UTF-8" standalone="no"?>
<svg
   xmlns:dc="http://purl.org/dc/elements/1.1/"
   xmlns:cc="http://creativecommons.org/ns#"
   xmlns:rdf="http://www.w3.org/1999/02/22-rdf-syntax-ns#"
   xmlns:svg="http://www.w3.org/2000/svg"
   xmlns="http://www.w3.org/2000/svg"
   xmlns:sodipodi="http://sodipodi.sourceforge.net/DTD/sodipodi-0.dtd"
   xmlns:inkscape="http://www.inkscape.org/namespaces/inkscape"
   viewBox="0 0 425.09651 144.70267"
   height="144.70267"
   width="425.09653"
   xml:space="preserve"
   id="svg2"
   version="1.1"
   sodipodi:docname="invixo2.svg"
   inkscape:version="0.92.2 (5c3e80d, 2017-08-06)"><sodipodi:namedview
     pagecolor="#ffffff"
     bordercolor="#666666"
     borderopacity="1"
     objecttolerance="10"
     gridtolerance="10"
     guidetolerance="10"
     inkscape:pageopacity="0"
     inkscape:pageshadow="2"
     inkscape:window-width="1920"
     inkscape:window-height="1017"
     id="namedview3753"
     showgrid="false"
     fit-margin-top="0"
     fit-margin-left="0"
     fit-margin-right="0"
     fit-margin-bottom="0"
     inkscape:zoom="1.06"
     inkscape:cx="127.53984"
     inkscape:cy="72.062542"
     inkscape:window-x="-8"
     inkscape:window-y="-8"
     inkscape:window-maximized="1"
     inkscape:current-layer="svg2" /><metadata
     id="metadata8"><rdf:RDF><cc:Work
         rdf:about=""><dc:format>image/svg+xml</dc:format><dc:type
           rdf:resource="http://purl.org/dc/dcmitype/StillImage" /><dc:title></dc:title></cc:Work></rdf:RDF></metadata><defs
     id="defs6"><clipPath
       id="clipPath38"
       clipPathUnits="userSpaceOnUse"><path
         id="path36"
         d="M 0,600 H 800 V 0 H 0 Z"
         inkscape:connector-curvature="0" /></clipPath></defs><g
     transform="matrix(1.3333333,0,0,-1.3333333,-306.73693,472.64012)"
     id="g10"><g
       transform="translate(284.3267,254.8281)"
       id="g12"><path
         id="path14"
         style="fill:#425260;fill-opacity:1;fill-rule:nonzero;stroke:none"
         d="M 0,0 -16.608,28.799 -45.397,45.395 -16.623,62.008 -0.001,90.787 16.604,62.091 45.388,45.395 16.622,28.766 Z M 19.852,65.334 -0.003,99.652 -19.869,65.258 -54.274,45.391 -19.856,25.551 -0.004,-8.875 19.87,25.518 54.241,45.389 Z"
         inkscape:connector-curvature="0" /></g><g
       transform="translate(294.6792,305.0845)"
       id="g16"><path
         id="path18"
         style="fill:#527f89;fill-opacity:1;fill-rule:nonzero;stroke:none"
         d="m 0,0 -3.479,2.009 -2.008,3.475 3.415,5.918 2.923,-5.064 5.064,-2.924 z m 20.256,-4.866 -9.905,-5.719 -5.914,3.414 3.99,2.305 -3.99,2.304 5.914,3.414 z M 0.854,-16.07 l -2.925,-5.061 -3.414,5.913 2.008,3.479 3.477,2.005 5.915,-3.414 z m -11.204,-19.405 -5.719,9.908 3.415,5.913 2.304,-3.993 2.303,3.993 3.415,-5.913 z m -11.203,19.401 -5.064,2.926 5.915,3.414 3.479,-2.007 2.007,-3.477 -3.415,-5.913 z m -19.405,11.206 9.904,5.72 5.916,-3.416 -3.991,-2.304 3.991,-2.303 -5.916,-3.416 z m 19.401,11.202 2.925,5.068 3.414,-5.918 -2.007,-3.481 -3.477,-2.005 -5.915,3.414 z m 14.831,-7.573 6.28,-3.627 -6.277,-3.624 -3.627,-6.282 -3.624,6.276 -6.283,3.628 6.278,3.627 3.626,6.279 z m -3.627,26.98 5.72,-9.904 -3.415,-5.917 -2.305,3.991 -2.302,-3.991 -3.415,5.917 z m 0.002,8.873 L -24.81,9.578 -49.831,-4.866 -24.796,-19.298 -10.35,-44.347 4.105,-19.332 29.134,-4.866 4.086,9.665 Z"
         inkscape:connector-curvature="0" /></g><path
       id="path20"
       style="fill:#425260;fill-opacity:1;fill-rule:nonzero;stroke:none"
       d="m 357.712,281.971 h -8.379 v 35.894 h 8.379 z"
       inkscape:connector-curvature="0" /><g
       transform="translate(402.1191,281.9707)"
       id="g22"><path
         id="path24"
         style="fill:#425260;fill-opacity:1;fill-rule:nonzero;stroke:none"
         d="M 0,0 H -8.38 L -29.958,24.163 V 0 h -8.38 v 35.894 h 8.38 L -8.38,11.87 V 35.894 H 0 Z"
         inkscape:connector-curvature="0" /></g><g
       transform="translate(450.1689,317.8647)"
       id="g26"><path
         id="path28"
         style="fill:#425260;fill-opacity:1;fill-rule:nonzero;stroke:none"
         d="m 0,0 -18.296,-35.894 h -7.122 L -43.783,0 h 9.356 L -21.786,-24.582 -9.358,0 Z"
         inkscape:connector-curvature="0" /></g><path
       id="path30"
       style="fill:#425260;fill-opacity:1;fill-rule:nonzero;stroke:none"
       d="m 462.817,281.971 h -8.381 v 35.894 h 8.381 z"
       inkscape:connector-curvature="0" /><g
       id="g32"><g
         clip-path="url(#clipPath38)"
         id="g34"><g
           transform="translate(540.4941,293.3428)"
           id="g40"><path
             id="path42"
             style="fill:#425260;fill-opacity:1;fill-rule:nonzero;stroke:none"
             d="m 0,0 v 13.15 c 0,1.996 -1.116,2.993 -3.351,2.993 h -18.395 c -2.234,0 -3.351,-0.997 -3.351,-2.993 V 0 c 0,-1.995 1.117,-2.991 3.351,-2.991 H -3.351 C -1.116,-2.991 0,-1.995 0,0 m 8.381,-0.012 c 0,-3.252 -1.142,-5.959 -3.422,-8.118 -2.28,-2.161 -5.052,-3.242 -8.31,-3.242 h -18.395 c -3.26,0 -6.027,1.081 -8.31,3.242 -2.282,2.159 -3.422,4.866 -3.422,8.118 v 13.174 c 0,3.25 1.14,5.959 3.422,8.118 2.283,2.161 5.05,3.242 8.31,3.242 h 18.395 c 3.258,0 6.03,-1.081 8.31,-3.242 2.28,-2.159 3.422,-4.868 3.422,-8.118 z"
             inkscape:connector-curvature="0" /></g><g
           transform="translate(494.7383,303.6777)"
           id="g44"><path
             id="path46"
             style="fill:#527f89;fill-opacity:1;fill-rule:nonzero;stroke:none"
             d="M 0,0 11.566,14.187 H 1.026 L -5.26,6.247 Z"
             inkscape:connector-curvature="0" /></g><g
           transform="translate(489.4365,290.2725)"
           id="g48"><path
             id="path50"
             style="fill:#527f89;fill-opacity:1;fill-rule:nonzero;stroke:none"
             d="M 0,0 6.851,-8.302 H 17.397 L 5.302,6.54 Z"
             inkscape:connector-curvature="0" /></g><g
           transform="translate(478.1543,317.8643)"
           id="g52"><path
             id="path54"
             style="fill:#425260;fill-opacity:1;fill-rule:nonzero;stroke:none"
             d="M 0,0 H -10.543 L 3.533,-17.635 -11.07,-35.894 h 10.545 l 14.6,18.033 z"
             inkscape:connector-curvature="0" /></g></g></g></g></svg>